# xmcd
#
# Track frame offsets:
#   150
#   15273
#   33070
#   53661
#   69761
#   84904
#   98009
#   110831
#   124597
#   145202
#   159712
#   176055
#   193866
#   205056
#   221091
#   232509
#   253144
#   271576
#   290031
#   302908
#   318931
#   336601
#
# Disc length: 4748 seconds
#
# Revision: 0
# Processed by: cddbd v1.5.1PL0 Copyright (c) Steve Scherf et al.
# Submitted via: Media_Universe 3.0
#
DISCID=33128a16
DTITLE=PATTY LOVELESS - Patty Loveless
DYEAR=2004
DGENRE=Country
TTITLE0=Jealous Bone
TTITLE1=On Your Way Home
TTITLE2=We Aint Done Nothing Wrong
TTITLE3=Blame It On Your Lyin' Cheatin' Heart
TTITLE4=Blue Side Of Town
TTITLE5=I Know You're Married
TTITLE6=I Try To Think About Elvis
TTITLE7=I'm That Kind Of Girl
TTITLE8=Lonely Too Long
TTITLE9=Lokking For A Heartache Like You
TTITLE10=Lovin' All Night
TTITLE11=Maybe It Was Memphis
TTITLE12=Shackles And Chains
TTITLE13=Thats The Kind Of Mood I'm In
TTITLE14=Timber, I'm Falling In Love
TTITLE15=To Have You Back Again
TTITLE16=You Don't Even Know Who I Am
TTITLE17=You Don't Seem To Miss Me
TTITLE18=Youre All I Think About These Days
TTITLE19=Out Of Control Raging Fire
TTITLE20=My Kind Of Woman. My Kind Of Man
TTITLE21=Whenever You Come Around
EXTD=
EXTT0=
EXTT1=
EXTT2=
EXTT3=
EXTT4=
EXTT5=
EXTT6=
EXTT7=
EXTT8=
EXTT9=
EXTT10=
EXTT11=
EXTT12=
EXTT13=
EXTT14=
EXTT15=
EXTT16=
EXTT17=
EXTT18=
EXTT19=
EXTT20=
EXTT21=
PLAYORDER=
